<?xml version="1.0" encoding="UTF-8"?>
<svg xmlns="http://www.w3.org/2000/svg" version="1.1" viewBox="0 0 1080 1080">
  <defs>
    <style>
      .cls-1 {
        fill: none;
        stroke: #231f20;
        stroke-miterlimit: 10;
        stroke-width: 42.3px;
      }

      .cls-2 {
        fill: #fff;
      }

      .cls-3 {
        fill: #e9c369;
      }

      .cls-4 {
        fill: #fdcd9a;
      }
    </style>
  </defs>
  <!-- Generator: Adobe Illustrator 28.6.0, SVG Export Plug-In . SVG Version: 1.2.0 Build 709)  -->
  <g>
    <g id="Layer_1">
      <g>
        <g>
          <path class="cls-2" d="M357.98,1000.28v-106.59c0-10.98,4.77-20.74,12.23-27.58h-28.6c-20.51,0-37.22,16.71-37.22,37.43v106.59c0,20.73,16.71,37.43,37.22,37.43h324.21c9.64,0,18.37-3.79,24.99-9.86h-295.6c-20.52,0-37.22-16.71-37.22-37.43Z"/>
          <path class="cls-3" d="M703.04,1010.13v-106.59c0-20.73-16.71-37.43-37.22-37.43h-295.6c-7.46,6.84-12.23,16.6-12.23,27.58v106.59c0,20.73,16.71,37.43,37.22,37.43h295.6c7.46-6.84,12.23-16.6,12.23-27.58Z"/>
        </g>
        <g>
          <path class="cls-4" d="M734.85,147.36c1.08-4.28,2.87-8.16,5.15-11.63-2.11-1.51-4.05-3.23-6.5-4.31-5.08-2.11-10.15-3.17-15.23-3.17-16.92,0-32.57,11.42-37.01,28.97l-17.39,70.55,1.4,201.93,69.58-282.33Z"/>
          <path class="cls-4" d="M799.56,403.04c.92-1.53,2.16-2.67,3.22-4.03-6.54-4-13.85-6.21-21.28-6.21-6.18,0-12.3,1.57-17.96,4.29l-18.96,96.67,54.99-90.73Z"/>
          <path class="cls-4" d="M436.87,139.32c0-1.06-.21-2.12-.21-2.96,0-7.87,2.71-15.1,6.93-21.25-8.79-6.18-20.06-8.77-31.34-5.9-17.13,4.23-29.18,19.46-29.18,37.01,0,.85.21,1.9.21,2.96l10.24,141.22,66.19,164.03-22.84-315.11Z"/>
          <path class="cls-4" d="M580.25,61.92c.43-8.89,3.72-16.94,8.84-23.47-6.21-3.74-13.41-6.01-21.19-6.01-22.21,0-40.18,17.34-41.24,39.34l-4.94,109.15,42.04,245.39,16.5-364.39Z"/>
          <path class="cls-2" d="M430.31,693.2l-118.01-405.21c-1.06-3.6-1.48-6.98-1.48-10.57,0-7.07,2.08-13.93,5.79-19.83-10.87-8.05-25.68-10.04-38.87-3.52-12.9,6.34-20.51,19.46-20.51,33.2,0,3.6.42,6.98,1.48,10.57l118.01,405.21v163.06h253.78v-9.86h-200.19v-163.05Z"/>
          <path class="cls-4" d="M685.06,703.06l132.81-249.34c7.4-13.75,6.34-30.67-2.75-43.35-3.42-4.91-7.71-8.51-12.34-11.34-1.07,1.36-2.3,2.5-3.22,4.03l-54.99,90.73,18.96-96.67c-6.93,3.33-13.15,8.47-17.57,15.8l-54.99,90.73,64.71-329.92c2.87-14.92-3.76-29.43-15.71-37.98-2.27,3.47-4.06,7.36-5.15,11.63l-69.58,282.33-1.4-201.93-52.19,211.78-2.54-366.29c-.14-14.85-8.19-27.67-20.05-34.81-5.12,6.53-8.41,14.58-8.84,23.47l-16.5,364.39-42.04-245.39-11.56,255.24-50.76-296.29c-1.82-10.5-7.8-19.12-15.83-24.76-4.22,6.15-6.93,13.38-6.93,21.25,0,.85.21,1.9.21,2.96l22.84,315.11-66.19-164.03,12.6,173.89-76.98-190.76c-2.72-6.69-7.18-11.99-12.52-15.94-3.71,5.9-5.79,12.76-5.79,19.83,0,3.6.42,6.98,1.48,10.57l118.01,405.21v163.05h200.19v-89.75l54.56-63.45Z"/>
        </g>
        <g>
          <path class="cls-1" d="M376.72,866.11h-35.11c-20.51,0-37.22,16.71-37.22,37.43v106.59c0,20.73,16.71,37.43,37.22,37.43h324.21c20.51,0,37.22-16.71,37.22-37.43v-106.59c0-20.73-16.71-37.43-37.22-37.43h-35.32"/>
          <path class="cls-1" d="M510.17,436.16l-50.76-296.29c-3.81-21.99-25.59-36.16-47.16-30.67-17.13,4.23-29.18,19.46-29.18,37.01,0,.85.21,1.9.21,2.96l22.84,315.11"/>
          <path class="cls-1" d="M611.68,439.54l-2.54-366.29c-.21-22.63-18.61-40.82-41.24-40.82s-40.18,17.34-41.24,39.34l-16.5,364.39"/>
          <path class="cls-1" d="M690.99,503.62l64.71-329.92c3.38-17.55-5.92-35.11-22.21-42.3-5.08-2.11-10.15-3.17-15.23-3.17-16.92,0-32.57,11.42-37.01,28.97l-69.58,282.33"/>
          <path class="cls-1" d="M406.12,464.29l-76.98-190.76c-8.25-20.3-31.72-29.18-51.39-19.46-12.9,6.34-20.51,19.46-20.51,33.2,0,3.6.42,6.98,1.48,10.57l118.01,405.21v163.06h253.78v-99.61l54.56-63.45,132.81-249.34c7.4-13.75,6.34-30.67-2.75-43.35-8.25-11.84-20.94-17.55-33.63-17.55-13.75,0-27.49,6.77-35.53,20.09l-54.99,90.73-100.03,11-56.47,108.7"/>
        </g>
      </g>
    </g>
  </g>
</svg>