<?xml version="1.0" encoding="UTF-8"?>
<svg xmlns="http://www.w3.org/2000/svg" version="1.1" viewBox="0 0 877.94 892.9">
  <defs>
    <style>
      .cls-1 {
        fill: none;
        stroke: #231f20;
        stroke-miterlimit: 10;
        stroke-width: 42.3px;
      }

      .cls-2 {
        fill: #fff;
      }

      .cls-3 {
        fill: #f4a261;
      }

      .cls-4 {
        fill: #fdcd9a;
      }
    </style>
  </defs>
  <!-- Generator: Adobe Illustrator 28.6.0, SVG Export Plug-In . SVG Version: 1.2.0 Build 709)  -->
  <g>
    <g id="Layer_1">
      <g>
        <g>
          <path class="cls-2" d="M561.37,753.24l9.09-9.09,211.06-211.06.21-.21,3.7-3.7-5.6-5.6c-14.38-14.38-37.86-14.38-52.24,0l-9.31,9.31-.21.21-211.06,211.06-9.09,9.09c-14.59,14.38-14.59,37.86,0,52.24l45.89,46.1c14.38,14.38,37.86,14.38,52.24,0l5.61-5.62-40.3-40.48c-14.59-14.38-14.59-37.86,0-52.24Z"/>
          <path class="cls-3" d="M825.73,569.46l-40.29-40.29-3.7,3.7-.21.21-211.06,211.06-9.09,9.09c-14.59,14.38-14.59,37.86,0,52.24l40.3,40.48,224.06-224.27c14.59-14.38,14.59-37.64,0-52.24Z"/>
        </g>
        <g>
          <path class="cls-2" d="M480.79,654.48c-3.38.21-6.98.21-10.36.21-48.01,0-94.11-19.03-128.16-53.08l-173.63-173.63c-16.28-16.28-25.38-38.49-25.38-61.54v-51.6c0-19.25,7.61-37.64,21.15-51.39l198.37-198.16c2.17-2.17,4.56-3.97,6.98-5.7-21.38-15.29-51.24-13.49-70.42,5.7l-198.37,198.16c-13.53,13.75-21.15,32.15-21.15,51.39v51.6c0,23.05,9.09,45.26,25.38,61.54l173.63,173.63c34.05,34.05,80.15,53.08,128.16,53.08,3.38,0,6.98,0,10.36-.21l89.67,89.67,211.06-211.06.21-.21-.79-.79-179.55,179.55-57.15-57.15Z"/>
          <path class="cls-4" d="M691.01,294.11c6.34-15.44,2.96-32.99-8.88-44.83l-71.9-71.91h-121.39l-112.09-112.09c-2.17-2.17-4.56-3.97-6.98-5.7-2.42,1.73-4.81,3.53-6.98,5.7l-198.37,198.16c-13.54,13.75-21.15,32.15-21.15,51.39v51.6c0,23.05,9.09,45.26,25.38,61.54l173.63,173.63c34.05,34.05,80.15,53.08,128.16,53.08,3.38,0,6.98,0,10.36-.21l57.15,57.15,179.55-179.55-88.88-88.88,62.39-149.1Z"/>
        </g>
        <g>
          <path class="cls-1" d="M507.02,744.15l-9.09,9.09c-14.59,14.38-14.59,37.86,0,52.24l45.89,46.1c14.38,14.38,37.86,14.38,52.24,0l229.67-229.88c14.59-14.38,14.59-37.64,0-52.24l-45.89-45.89c-14.38-14.38-37.86-14.38-52.24,0l-9.31,9.31-.21.21"/>
          <path class="cls-1" d="M718.08,533.09l-211.06,211.06-89.67-89.67c-3.38.21-6.98.21-10.36.21-48.01,0-94.11-19.03-128.16-53.08l-173.63-173.63c-16.28-16.28-25.38-38.49-25.38-61.54v-51.6c0-19.25,7.61-37.64,21.15-51.39l198.37-198.16c21.36-21.36,56.04-21.36,77.4,0l112.09,112.09"/>
          <path class="cls-1" d="M718.29,532.87l-89.67-89.67,62.39-149.1c6.34-15.44,2.96-32.99-8.88-44.83l-71.9-71.91h-167.92c-14.59,0-26.22,11.84-26.22,26.22v17.76c0,38.7,31.3,69.79,69.79,69.79h90.94"/>
          <path class="cls-1" d="M482.06,291.15l-159.88,160.09c-20.94,20.94-54.99,20.94-75.92,0l-92.84-92.84"/>
          <line class="cls-1" x1="455.2" y1="318.64" x2="455.2" y2="453.99"/>
        </g>
      </g>
    </g>
  </g>
</svg>