<?xml version="1.0" encoding="UTF-8"?>
<svg xmlns="http://www.w3.org/2000/svg" version="1.1" viewBox="0 0 1080 1080">
  <defs>
    <style>
      .cls-1 {
        fill: none;
        stroke: #231f20;
        stroke-miterlimit: 10;
        stroke-width: 42.3px;
      }

      .cls-2 {
        fill: #fff;
      }

      .cls-3 {
        fill: #2a9d8f;
      }

      .cls-4 {
        fill: #fdcd9a;
      }
    </style>
  </defs>
  <!-- Generator: Adobe Illustrator 28.6.0, SVG Export Plug-In . SVG Version: 1.2.0 Build 709)  -->
  <g>
    <g id="Layer_1">
      <g>
        <path class="cls-4" d="M744.34,108.36c16.5,7.19,26.01,24.96,22.42,42.72l-68.73,353.82v.21l-82.27-43.35c-11.42-6.13-25.38-1.9-31.72,9.31l-7.61,13.53c-2.54,4.44-4.02,9.31-4.65,13.96l-32.15.63c0-3.6-.42-7.4-1.48-11.21l-39.76-151.21-50.97-249.13c-.63-2.75-.85-5.5-.85-8.25,0-17.76,11.42-33.84,28.76-39.34,22.84-7.19,46.95,6.56,52.45,29.82l85.44,336.47,78.46-272.6c4.65-17.34,20.51-28.55,37.43-28.55,5.08,0,10.15,1.06,15.23,3.17Z"/>
        <g>
          <path class="cls-2" d="M379.32,481.64v-49.06c0-18.19,11.42-34.47,28.55-40.61l95.98-34.41-5.46-20.79-153.96,55.2c-17.13,6.13-28.55,22.42-28.55,40.61v49.06l69.16,215.93v163.06h63.45v-163.06l-69.16-215.93Z"/>
          <path class="cls-4" d="M693.16,697.56l54.99-103.2c14.38-26.86,4.23-60.48-22.84-74.87l-27.28-14.38-82.27-43.35c-11.42-6.13-25.38-1.9-31.72,9.31l-7.61,13.53c-2.54,4.44-4.02,9.31-4.65,13.96l-32.15.63c0-3.6-.42-7.4-1.48-11.21l-34.29-130.43-95.98,34.41c-17.13,6.13-28.55,22.42-28.55,40.61v49.06l69.16,215.93v163.06h190.34v-99.61l54.35-63.45Z"/>
        </g>
        <g>
          <path class="cls-2" d="M375.93,1004.85v-107.01c0-20.51,16.71-37.22,37.22-37.22h-63.45c-20.51,0-37.22,16.71-37.22,37.22v107.01c0,20.51,16.71,37.01,37.22,37.01h63.45c-20.51,0-37.22-16.5-37.22-37.01Z"/>
          <path class="cls-3" d="M711.35,1004.85v-107.01c0-20.51-16.71-37.22-37.22-37.22h-260.97c-20.51,0-37.22,16.71-37.22,37.22v107.01c0,20.51,16.71,37.01,37.22,37.01h260.97c20.51,0,37.22-16.5,37.22-37.01Z"/>
        </g>
        <g>
          <path class="cls-1" d="M385.03,860.62h-35.32c-20.51,0-37.22,16.71-37.22,37.22v107.01c0,20.51,16.71,37.01,37.22,37.01h324.42c20.51,0,37.22-16.5,37.22-37.01v-107.01c0-20.51-16.71-37.22-37.22-37.22h-35.32"/>
          <path class="cls-1" d="M613.22,406.35l-85.44-336.47c-5.5-23.26-29.61-37.01-52.45-29.82-17.34,5.5-28.76,21.57-28.76,39.34,0,2.75.21,5.5.85,8.25l50.97,249.13"/>
          <path class="cls-1" d="M698.02,504.9l68.73-353.82c3.6-17.76-5.92-35.53-22.42-42.72-5.08-2.11-10.15-3.17-15.23-3.17-16.92,0-32.78,11.21-37.43,28.55l-78.46,272.6"/>
          <path class="cls-1" d="M650.02,582.73l-32.15-24.53-31.3-24.11c-11.21-8.46-16.5-22.21-14.8-35.53.63-4.65,2.11-9.52,4.65-13.96l7.61-13.53c6.34-11.21,20.3-15.44,31.72-9.31l82.27,43.35,27.28,14.38c27.07,14.38,37.22,48.01,22.84,74.87l-54.99,103.2-54.35,63.45v99.61h-253.78v-163.06l-69.16-215.93v-49.06c0-18.19,11.42-34.47,28.55-40.61l153.96-55.2,39.76,151.21c1.06,3.81,1.48,7.61,1.48,11.21,0,20.94-14.8,39.76-36.38,43.57l-59.64,10.79c-20.94,3.81-41.45-8.25-48.22-28.13l-20.09-57.31"/>
          <line class="cls-1" x1="617.87" y1="558.19" x2="526.51" y2="664.78"/>
        </g>
      </g>
    </g>
  </g>
</svg>